<?xml version="1.0" encoding="UTF-8"?>
<svg xmlns="http://www.w3.org/2000/svg" viewBox="0 0 270 270">
  <defs>
    <style>
      .circle {
        fill: #3333b0;
        stroke: #f9d12b;
        stroke-linecap: round;
        stroke-linejoin: round;
        stroke-width: 16px;
      }

      .dollar {
        fill: #f9d12b;
      }
    </style>
  </defs>

  <circle class="circle" cx="135" cy="135" r="127"/>
  <g>
    <path class="dollar" d="M135,62.52c-27.97,0-50.88,18.33-50.88,40.71s22.91,40.7,50.88,40.7v-17.88c-15.89,0-28.53-10.11-28.53-22.83s12.64-22.83,28.53-22.83,28.54,10.11,28.54,22.83h22.35c0-22.38-22.92-40.71-50.88-40.71h-.01Zm0,63.55v17.88c15.89,0,28.53,10.11,28.53,22.83s-12.64,22.83-28.53,22.83-28.54-10.11-28.54-22.83h-22.35c0,22.38,22.92,40.71,50.88,40.71s50.88-18.33,50.88-40.71-22.91-40.71-50.88-40.71h0Z"/>
    <path class="dollar" d="M121.96,51.35V218.64h7.45V51.35h-7.45Z"/>
    <path class="dollar" d="M140.58,51.35V218.64h7.45V51.35h-7.45Z"/>
  </g>
</svg>